<?xml version="1.0" encoding="UTF-8" standalone="no"?>
<svg
   xmlns:dc="http://purl.org/dc/elements/1.1/"
   xmlns:cc="http://creativecommons.org/ns#"
   xmlns:rdf="http://www.w3.org/1999/02/22-rdf-syntax-ns#"
   xmlns:svg="http://www.w3.org/2000/svg"
   xmlns="http://www.w3.org/2000/svg"
   xmlns:sodipodi="http://sodipodi.sourceforge.net/DTD/sodipodi-0.dtd"
   xmlns:inkscape="http://www.inkscape.org/namespaces/inkscape"
   viewBox="0 -256 1792 1792"
   id="svg3349"
   version="1.1"
   inkscape:version="0.48.3.1 r9886"
   width="100%"
   height="100%"
   sodipodi:docname="upload_alt_font_awesome.svg">
  <metadata
     id="metadata3359">
    <rdf:RDF>
      <cc:Work
         rdf:about="">
        <dc:format>image/svg+xml</dc:format>
        <dc:type
           rdf:resource="http://purl.org/dc/dcmitype/StillImage" />
      </cc:Work>
    </rdf:RDF>
  </metadata>
  <defs
     id="defs3357" />
  <sodipodi:namedview
     pagecolor="#ffffff"
     bordercolor="#fff"
     borderopacity="1"
     objecttolerance="10"
     gridtolerance="10"
     guidetolerance="10"
     inkscape:pageopacity="0"
     inkscape:pageshadow="2"
     inkscape:window-width="1024"
     inkscape:window-height="719"
     id="namedview3355"
     showgrid="false"
     inkscape:zoom="0.13169643"
     inkscape:cx="896"
     inkscape:cy="896"
     inkscape:window-x="0"
     inkscape:window-y="25"
     inkscape:window-maximized="1"
     inkscape:current-layer="svg3349" />
  <g
     transform="matrix(1,0,0,-1,68.338983,1247.4576)"
     id="g3351">
    <path
       d="M 1664,480 V -96 q 0,-13 -9.5,-22.5 -9.5,-9.5 -22.5,-9.5 H 32 q -13,0 -22.5,9.5 Q 0,-109 0,-96 V 480 Q 0,493 9.5,502.5 19,512 32,512 h 192 q 13,0 22.5,-9.5 Q 256,493 256,480 V 128 h 1152 v 352 q 0,13 9.5,22.5 9.5,9.5 22.5,9.5 h 192 q 13,0 22.5,-9.5 9.5,-9.5 9.5,-22.5 z m -320,352 q 0,-26 -19,-45 -19,-19 -45,-19 H 1024 V 320 q 0,-26 -19,-45 -19,-19 -45,-19 H 704 q -26,0 -45,19 -19,19 -19,45 V 768 H 384 q -26,0 -45,19 -19,19 -19,45 0,26 19,45 l 448,448 q 19,19 45,19 26,0 45,-19 l 448,-448 q 19,-19 19,-45 z"
       id="path3353"
       inkscape:connector-curvature="0"
       style="fill:white"/>
  </g>
</svg>
